<svg xmlns="http://www.w3.org/2000/svg" width="24.935" height="41.914" viewBox="0 0 24.935 41.914"><path d="M112.251,0a2.092,2.092,0,0,0-1.618.689,2.237,2.237,0,0,0-3.2-.025A2.026,2.026,0,0,0,105.844,0a2.1,2.1,0,0,0-1.525.611,2.066,2.066,0,0,0-.612,1.272l0,2.132a.614.614,0,0,0,.614.613h0a.614.614,0,0,0,.613-.615l0-2.1a.9.9,0,0,1,.909-.689c.6,0,.777.33.937.728l.029.071V8.711a.614.614,0,1,0,1.228,0V2a.986.986,0,0,1,.976-.771h.007A.988.988,0,0,1,110,2V8.711a.614.614,0,0,0,1.228,0V2.041l.02-.044a1.038,1.038,0,0,1,1-.768,1.155,1.155,0,0,1,.965.708L113.209,9.7a6.675,6.675,0,0,1-1.306,3.963l-.363.495a6.6,6.6,0,0,0-1.272,4.142l.093,2.369h-2.613l.112-2.348a6.592,6.592,0,0,0-1.256-4.179l-.369-.506A6.676,6.676,0,0,1,104.943,9.7l0-3.231a.614.614,0,0,0-.614-.613h0a.614.614,0,0,0-.613.615l0,3.231a7.9,7.9,0,0,0,1.527,4.664l.369.506a5.36,5.36,0,0,1,1.022,3.4l-.97,20.359a3.312,3.312,0,1,0,6.619-.223L112.1,33.7a.614.614,0,0,0-1.227.048l.184,4.706a2.085,2.085,0,1,1-4.164.2l.8-16.754h2.719l.368,9.409a.614.614,0,0,0,.613.59h.024a.614.614,0,0,0,.589-.637l-.508-13.006a5.363,5.363,0,0,1,1.035-3.368l.363-.5a7.9,7.9,0,0,0,1.544-4.688l.008-7.823A2.3,2.3,0,0,0,112.251,0Z" transform="translate(-103.707 -0.001)"/><path d="M276.87,8.533C276.7,4.576,274.093,0,270.975,0h-.028c-1.483.013-2.93,1.053-4.073,2.928a12.187,12.187,0,0,0-1.708,5.6,10.659,10.659,0,0,0,1.881,6.322l.014.02a6.009,6.009,0,0,1,1.513,3.4l-.97,20.359c0,.018,0,.036,0,.054a3.367,3.367,0,0,0,1.091,2.356,3.259,3.259,0,0,0,2.217.875l.138,0a3.351,3.351,0,0,0,3.172-3.5l-.787-20.147a4.889,4.889,0,0,1,1.018-2.65.614.614,0,1,0-1.019-.685,5.981,5.981,0,0,0-1.226,3.383l.093,2.369h-2.613l.112-2.348a6.942,6.942,0,0,0-1.74-4.169,9.435,9.435,0,0,1-1.668-5.58c.131-3.291,2.263-7.328,4.565-7.348h.018c2.346,0,4.525,4.037,4.667,7.357a8.9,8.9,0,0,1-.938,4.309.614.614,0,0,0,1.1.538,10.114,10.114,0,0,0,1.061-4.9ZM272.35,21.9,273,38.452a2.122,2.122,0,0,1-2,2.229,2.039,2.039,0,0,1-1.472-.548,2.147,2.147,0,0,1-.695-1.477l.8-16.754Z" transform="translate(-251.943)"/></svg>