<svg xmlns="http://www.w3.org/2000/svg" width="22.284" height="22.284" viewBox="0 0 22.284 22.284"><path d="M22.885,22.825h.006V14.652c0-4-.861-7.078-5.535-7.078a4.852,4.852,0,0,0-4.37,2.4h-.065V7.947H8.489V22.824H13.1V15.458c0-1.94.368-3.815,2.77-3.815,2.367,0,2.4,2.214,2.4,3.94v7.243Z" transform="translate(-0.607 -0.542)" fill="#2d2b2b"/><path d="M.4,7.977h4.62V22.854H.4Z" transform="translate(-0.028 -0.57)" fill="#2d2b2b"/><path d="M2.676,0A2.688,2.688,0,1,0,5.352,2.676,2.677,2.677,0,0,0,2.676,0Z" fill="#2d2b2b"/></svg>