<svg xmlns="http://www.w3.org/2000/svg" width="35.055" height="41.962" viewBox="0 0 35.055 41.962"><g transform="translate(0 0)"><g transform="translate(0 0)"><path d="M136.947,14.507a1.981,1.981,0,0,0,1-1.719V11.363a1.982,1.982,0,0,0-1.98-1.98h-.581A4.453,4.453,0,0,0,134.692,8a.615.615,0,1,0-.983.738,3.126,3.126,0,0,1,.371.644H123.273a3.167,3.167,0,0,1,.264-.492,3.053,3.053,0,0,1,2.313-1.333,1.879,1.879,0,0,0,1.837-1.876,2.947,2.947,0,0,0-.5-1.652,1.8,1.8,0,0,1,1.623-2.8,1.814,1.814,0,0,1,1.669,1.721,1.786,1.786,0,0,1-.305,1.078,2.937,2.937,0,0,0-.5,1.65A1.879,1.879,0,0,0,131.5,7.557c.068.008.136.018.2.029a.615.615,0,0,0,.2-1.213c-.1-.016-.2-.03-.3-.041a.608.608,0,0,0-.069,0,.648.648,0,0,1-.647-.647,1.712,1.712,0,0,1,.293-.962,3.028,3.028,0,0,0-2.3-4.713,3,3,0,0,0-2.279.807,3.028,3.028,0,0,0-.448,3.9,1.722,1.722,0,0,1,.3.965.648.648,0,0,1-.647.647.63.63,0,0,0-.069,0,4.276,4.276,0,0,0-3.782,3.05h-.573a1.982,1.982,0,0,0-1.98,1.98v1.425a1.981,1.981,0,0,0,1,1.719l-.841,1.23a5.235,5.235,0,0,0-.918,2.968V29.768a.615.615,0,1,0,1.229,0V18.7a4.011,4.011,0,0,1,.7-2.274l1.138-1.663h13.919l1.138,1.663a4.011,4.011,0,0,1,.7,2.274V39.187a1.546,1.546,0,0,1-1.544,1.544H121.421a1.546,1.546,0,0,1-1.544-1.544v-6.57a.615.615,0,1,0-1.229,0v6.57a2.777,2.777,0,0,0,2.773,2.773h14.513a2.777,2.777,0,0,0,2.773-2.773V18.7a5.235,5.235,0,0,0-.918-2.968Zm-.229-1.719a.752.752,0,0,1-.751.751h-14.58a.752.752,0,0,1-.751-.751V11.363a.752.752,0,0,1,.751-.751h14.58a.752.752,0,0,1,.751.751v1.425Z" transform="translate(-112.377 0.001)"/><path d="M158.24,245.248h2.139a.615.615,0,1,0,0-1.229H158.24a.615.615,0,1,0,0,1.229Z" transform="translate(-148.161 -224.021)"/><path d="M158.24,288.8h4.092a.615.615,0,1,0,0-1.229H158.24a.615.615,0,1,0,0,1.229Z" transform="translate(-148.161 -264.001)"/><path d="M158.24,332.347h2.139a.615.615,0,1,0,0-1.229H158.24a.615.615,0,1,0,0,1.229Z" transform="translate(-148.161 -303.982)"/><path d="M158.24,375.9h4.092a.615.615,0,1,0,0-1.229H158.24a.615.615,0,1,0,0,1.229Z" transform="translate(-148.161 -343.962)"/><path d="M158.24,419.446h2.139a.615.615,0,1,0,0-1.229H158.24a.615.615,0,0,0,0,1.229Z" transform="translate(-148.161 -383.943)"/><path d="M368.877,6.3a3.681,3.681,0,0,1,1.762-1.919.877.877,0,0,0,0-1.586A3.681,3.681,0,0,1,368.877.88a.877.877,0,0,0-1.612,0A3.681,3.681,0,0,1,365.5,2.8a.877.877,0,0,0,0,1.586A3.681,3.681,0,0,1,367.265,6.3a.877.877,0,0,0,1.612,0Zm-2.283-2.712A4.818,4.818,0,0,0,368.071,2a4.818,4.818,0,0,0,1.477,1.587,4.818,4.818,0,0,0-1.477,1.587,4.818,4.818,0,0,0-1.477-1.587Z" transform="translate(-338.542 -0.32)"/><path d="M47.776,65.864a3.681,3.681,0,0,1-1.761-1.918.877.877,0,0,0-1.612,0,3.68,3.68,0,0,1-1.761,1.918.877.877,0,0,0,0,1.586A3.681,3.681,0,0,1,44.4,69.369a.877.877,0,0,0,1.612,0,3.681,3.681,0,0,1,1.762-1.919.877.877,0,0,0,0-1.586Zm-2.567,2.38a4.819,4.819,0,0,0-1.477-1.587,4.819,4.819,0,0,0,1.477-1.587,4.818,4.818,0,0,0,1.477,1.587A4.819,4.819,0,0,0,45.209,68.244Z" transform="translate(-42.139 -58.218)"/><path d="M400.6,97.928a3.68,3.68,0,0,1-1.761-1.919.877.877,0,0,0-1.612,0h0a3.68,3.68,0,0,1-1.761,1.918.877.877,0,0,0,0,1.586,3.68,3.68,0,0,1,1.762,1.919.877.877,0,0,0,1.612,0,3.68,3.68,0,0,1,1.761-1.918.877.877,0,0,0,0-1.586Zm-2.567,2.38a4.818,4.818,0,0,0-1.477-1.587,4.816,4.816,0,0,0,1.477-1.587,4.818,4.818,0,0,0,1.477,1.587A4.819,4.819,0,0,0,398.034,100.308Z" transform="translate(-366.049 -87.654)"/></g></g></svg>