<svg xmlns="http://www.w3.org/2000/svg" width="24.629" height="24.63" viewBox="0 0 24.629 24.63"><path d="M12.165,5.838a6.319,6.319,0,1,0,6.319,6.319,6.319,6.319,0,0,0-6.319-6.319Zm0,10.421a4.1,4.1,0,1,1,4.1-4.1A4.1,4.1,0,0,1,12.165,16.259Z" transform="translate(0.154 0.152)" fill="#2d2b2b"/><path d="M17.392.078c-2.266-.106-7.878-.1-10.146,0A7.36,7.36,0,0,0,2.078,2.07C-.29,4.438.012,7.63.012,12.311c0,4.79-.267,7.908,2.066,10.241,2.378,2.377,5.615,2.066,10.241,2.066,4.745,0,6.383,0,8.061-.647,2.281-.886,4-2.925,4.172-6.587.107-2.267.1-7.878,0-10.146-.2-4.323-2.523-6.945-7.159-7.159Zm3.587,20.906c-1.553,1.553-3.707,1.414-8.69,1.414-5.131,0-7.189.076-8.69-1.43-1.729-1.721-1.416-4.485-1.416-8.675,0-5.67-.582-9.753,5.109-10.045C8.6,2.2,8.984,2.188,12.275,2.188l.046.031c5.469,0,9.759-.573,10.017,5.117.058,1.3.072,1.688.072,4.974,0,5.072.1,7.141-1.431,8.675Z" transform="translate(0 -0.001)" fill="#2d2b2b"/><ellipse cx="1.477" cy="1.477" rx="1.477" ry="1.477" transform="translate(17.412 4.264)" fill="#2d2b2b"/></svg>