<svg xmlns="http://www.w3.org/2000/svg" width="77" height="100" viewBox="0 0 77 100"><g transform="translate(-229 -1008)"><g transform="translate(229 1008)" fill="#fff" stroke="#1492e6" stroke-width="4"><rect width="77" height="100" rx="17" stroke="none"/><rect x="2" y="2" width="73" height="96" rx="15" fill="none"/></g><path d="M-1455-5322.333h41.667s6,1.667,6.333,5.667,0,17.333,0,17.333-.333,3,1.667,8-2,11-8,4.667-11-7.667-11-7.667H-1450s-4-.666-5-3.333S-1455-5322.333-1455-5322.333Z" transform="translate(1699 6360)" fill="#1492e6" stroke="#1492e6" stroke-width="1"/><g transform="translate(249 1079)" fill="#1492e6" stroke="#1492e6" stroke-width="1"><circle cx="5" cy="5" r="5" stroke="none"/><circle cx="5" cy="5" r="4.5" fill="none"/></g><circle cx="2.5" cy="2.5" r="2.5" transform="translate(264 1082)" fill="#1492e6"/><circle cx="2.5" cy="2.5" r="2.5" transform="translate(270 1082)" fill="#1492e6"/><circle cx="2.5" cy="2.5" r="2.5" transform="translate(276 1082)" fill="#1492e6"/><circle cx="2.5" cy="2.5" r="2.5" transform="translate(282 1082)" fill="#1492e6"/></g></svg>