<svg id="makeup" xmlns="http://www.w3.org/2000/svg" width="41.919" height="41.914" viewBox="0 0 41.919 41.914">
  <g id="Group_35" data-name="Group 35" transform="translate(24.468 0)">
    <g id="Group_34" data-name="Group 34" transform="translate(0 0)">
      <path id="Path_28" data-name="Path 28" d="M313.655,2.47a8.669,8.669,0,0,0-12.053,0l-.109.106a8.678,8.678,0,0,0-1.845,9.864l2.731,5.918V38.29a3.661,3.661,0,0,0,3.657,3.657h2.837a3.661,3.661,0,0,0,3.657-3.657V18.366l2.874-5.833A8.643,8.643,0,0,0,313.655,2.47Zm-2.762,35.82a2.022,2.022,0,0,1-2.02,2.02h-2.837a2.022,2.022,0,0,1-2.02-2.02V25.82h3.6V31.1a.819.819,0,0,0,1.637,0V25.82h1.635V38.29Zm-6.877-14.107V18.977h6.876v5.206Zm9.919-12.372-2.725,5.529h-.36l.66-3.959a.819.819,0,1,0-1.615-.269l-.7,4.228h-.918V13.246a.819.819,0,1,0-1.637,0V17.34h-.68l-.7-4.228a.819.819,0,1,0-1.615.269l.66,3.958h-.584l-2.578-5.586a7.039,7.039,0,0,1,1.5-8l.109-.106a7.032,7.032,0,0,1,11.2,8.163Z" transform="translate(-298.852 -0.033)"/>
    </g>
  </g>
  <g id="Group_37" data-name="Group 37" transform="translate(0 12.174)">
    <g id="Group_36" data-name="Group 36">
      <path id="Path_29" data-name="Path 29" d="M10.97,162.753v-3.61a1.639,1.639,0,0,0-.982-1.5v-5.058a2.452,2.452,0,0,0-1.3-2.165l-2.62-1.4a2.456,2.456,0,0,0-3.616,2.165v6.462a1.639,1.639,0,0,0-.982,1.5v3.61A1.639,1.639,0,0,0,0,164.382v11.625a2.459,2.459,0,0,0,2.456,2.456H9.987a2.459,2.459,0,0,0,2.456-2.456V164.382A1.639,1.639,0,0,0,10.97,162.753ZM4.093,151.181a.819.819,0,0,1,1.205-.722l2.62,1.4a.817.817,0,0,1,.432.722v4.921H4.093Zm-.982,7.962H9.332v3.6H3.111v-3.6Zm7.7,16.864a.82.82,0,0,1-.819.819H8.514V170.6a.819.819,0,1,0-1.637,0v6.222H2.456a.82.82,0,0,1-.819-.819V164.382h9.169Z" transform="translate(0 -148.722)"/>
    </g>
  </g>
  <g id="Group_39" data-name="Group 39" transform="translate(6.876 30.126)">
    <g id="Group_38" data-name="Group 38">
      <path id="Path_30" data-name="Path 30" d="M85.386,368.226a.818.818,0,1,0,.24.579A.823.823,0,0,0,85.386,368.226Z" transform="translate(-83.989 -367.986)"/>
    </g>
  </g>
  <g id="Group_41" data-name="Group 41" transform="translate(14.081 0)">
    <g id="Group_40" data-name="Group 40" transform="translate(0 0)">
      <path id="Path_31" data-name="Path 31" d="M181.966,20.17H178.2V12.148h1.393a.819.819,0,1,0,0-1.637H178.2V9.528h1.393a.819.819,0,1,0,0-1.637H178.2V6.909h1.393a.819.819,0,1,0,0-1.637H178.2V4.289h1.393a.819.819,0,1,0,0-1.637H178.2V1.669h1.393a.819.819,0,1,0,0-1.637h-4.422a.819.819,0,1,0,0,1.637h1.393v.982h-1.393a.819.819,0,1,0,0,1.637h1.393v.982h-1.393a.819.819,0,1,0,0,1.637h1.393v.982h-1.393a.819.819,0,1,0,0,1.637h1.393v.982h-1.393a.819.819,0,1,0,0,1.637h1.393V20.17H172.8a.819.819,0,0,0-.819.819v9.144a22.026,22.026,0,0,0,3.19,11.418.819.819,0,0,0,.7.394h3.025a.819.819,0,0,0,.7-.394,22.026,22.026,0,0,0,3.19-11.418V20.989A.819.819,0,0,0,181.966,20.17Zm-.819,9.963a20.39,20.39,0,0,1-2.72,10.175h-2.091a20.391,20.391,0,0,1-2.72-10.175V25.41h4.933a.819.819,0,0,0,0-1.637h-4.933V21.808h7.531v8.326Z" transform="translate(-171.979 -0.032)"/>
    </g>
  </g>
  <g id="Group_43" data-name="Group 43" transform="translate(33.236 33.11)">
    <g id="Group_42" data-name="Group 42">
      <path id="Path_32" data-name="Path 32" d="M407.345,404.671a.818.818,0,1,0,.24.579A.825.825,0,0,0,407.345,404.671Z" transform="translate(-405.948 -404.431)"/>
    </g>
  </g>
</svg>
